<?xml version="1.0" encoding="utf-8"?><svg xmlns="http://www.w3.org/2000/svg" xmlns:xlink="http://www.w3.org/1999/xlink" width="800px" height="800px" viewBox="0 0 100 100" preserveAspectRatio="xMidYMid" style="shape-rendering:crispedges;display:block;animation-play-state:paused" ><g transform="translate(50 50)" style="animation-play-state:paused" ><g transform="matrix(1,0,0,1,0,0)" style="animation-play-state:paused" ><path d="M34.856850115866756 -9 L45.856850115866756 -9 L45.856850115866756 9 L34.856850115866756 9 A36 36 0 0 1 31.0114761184114 18.28355405705355 L31.0114761184114 18.28355405705355 L38.78965071146342 26.06172865010557 L26.06172865010557 38.78965071146342 L18.28355405705355 31.0114761184114 A36 36 0 0 1 9 34.856850115866756 L9 34.856850115866756 L9 45.856850115866756 L-8.999999999999996 45.856850115866756 L-8.999999999999996 34.856850115866756 A36 36 0 0 1 -18.28355405705354 31.011476118411405 L-18.28355405705354 31.011476118411405 L-26.06172865010556 38.78965071146342 L-38.78965071146342 26.061728650105564 L-31.0114761184114 18.283554057053543 A36 36 0 0 1 -34.85685011586675 9.00000000000001 L-34.85685011586675 9.00000000000001 L-45.85685011586675 9.000000000000012 L-45.856850115866756 -9 L-34.856850115866756 -9.000000000000002 A36 36 0 0 1 -31.01147611841141 -18.283554057053536 L-31.01147611841141 -18.283554057053536 L-38.78965071146343 -26.061728650105557 L-26.061728650105575 -38.78965071146342 L-18.28355405705355 -31.0114761184114 A36 36 0 0 1 -9.000000000000012 -34.85685011586675 L-9.000000000000012 -34.85685011586675 L-9.000000000000014 -45.85685011586675 L8.999999999999996 -45.856850115866756 L8.999999999999998 -34.856850115866756 A36 36 0 0 1 18.283554057053536 -31.01147611841141 L18.283554057053536 -31.01147611841141 L26.061728650105557 -38.78965071146343 L38.78965071146342 -26.061728650105575 L31.0114761184114 -18.28355405705355 A36 36 0 0 1 34.85685011586675 -9.000000000000014 M0 -14A14 14 0 1 0 0 14 A14 14 0 1 0 0 -14" fill="#0a0a0a" style="animation-play-state:paused" ></path></g></g><!-- generated by https://loading.io/ --></svg>